<?xml version="1.0" encoding="utf-8" standalone="no"?>
<!DOCTYPE svg PUBLIC "-//W3C//DTD SVG 1.1//EN"
  "http://www.w3.org/Graphics/SVG/1.1/DTD/svg11.dtd">
<svg xmlns:xlink="http://www.w3.org/1999/xlink" width="720pt" height="432pt" viewBox="0 0 720 432" xmlns="http://www.w3.org/2000/svg" version="1.1">
 <metadata>
  <rdf:RDF xmlns:dc="http://purl.org/dc/elements/1.1/" xmlns:cc="http://creativecommons.org/ns#" xmlns:rdf="http://www.w3.org/1999/02/22-rdf-syntax-ns#">
   <cc:Work>
    <dc:type rdf:resource="http://purl.org/dc/dcmitype/StillImage"/>
    <dc:date>2023-09-13T03:39:43.197689</dc:date>
    <dc:format>image/svg+xml</dc:format>
    <dc:creator>
     <cc:Agent>
      <dc:title>Matplotlib v3.7.3, https://matplotlib.org/</dc:title>
     </cc:Agent>
    </dc:creator>
   </cc:Work>
  </rdf:RDF>
 </metadata>
 <defs>
  <style type="text/css">*{stroke-linejoin: round; stroke-linecap: butt}</style>
 </defs>
 <g id="figure_1">
  <g id="patch_1">
   <path d="M 0 432 
L 720 432 
L 720 0 
L 0 0 
z
" style="fill: #ffffff"/>
  </g>
  <g id="axes_1">
   <g id="patch_2">
    <path d="M 90 384.48 
L 648 384.48 
L 648 51.84 
L 90 51.84 
z
" style="fill: #ffffff"/>
   </g>
   <g id="matplotlib.axis_1">
    <g id="xtick_1">
     <g id="line2d_1">
      <path d="M 90.425704 384.48 
L 90.425704 51.84 
" clip-path="url(#p433ef96de1)" style="fill: none; stroke: #b0b0b0; stroke-width: 0.8; stroke-linecap: square"/>
     </g>
     <g id="line2d_2">
      <defs>
       <path id="m435055db10" d="M 0 0 
L 0 3.5 
" style="stroke: #000000; stroke-width: 0.8"/>
      </defs>
      <g>
       <use xlink:href="#m435055db10" x="90.425704" y="384.48" style="stroke: #000000; stroke-width: 0.8"/>
      </g>
     </g>
     <g id="text_1">
      <!-- $0$ -->
      <g transform="translate(87.225704 399.078438) scale(0.1 -0.1)">
       <defs>
        <path id="DejaVuSans-30" d="M 2034 4250 
Q 1547 4250 1301 3770 
Q 1056 3291 1056 2328 
Q 1056 1369 1301 889 
Q 1547 409 2034 409 
Q 2525 409 2770 889 
Q 3016 1369 3016 2328 
Q 3016 3291 2770 3770 
Q 2525 4250 2034 4250 
z
M 2034 4750 
Q 2819 4750 3233 4129 
Q 3647 3509 3647 2328 
Q 3647 1150 3233 529 
Q 2819 -91 2034 -91 
Q 1250 -91 836 529 
Q 422 1150 422 2328 
Q 422 3509 836 4129 
Q 1250 4750 2034 4750 
z
" transform="scale(0.015625)"/>
       </defs>
       <use xlink:href="#DejaVuSans-30" transform="translate(0 0.78125)"/>
      </g>
     </g>
    </g>
    <g id="xtick_2">
     <g id="line2d_3">
      <path d="M 303.015598 384.48 
L 303.015598 51.84 
" clip-path="url(#p433ef96de1)" style="fill: none; stroke: #b0b0b0; stroke-width: 0.8; stroke-linecap: square"/>
     </g>
     <g id="line2d_4">
      <g>
       <use xlink:href="#m435055db10" x="303.015598" y="384.48" style="stroke: #000000; stroke-width: 0.8"/>
      </g>
     </g>
     <g id="text_2">
      <!-- $\frac{\pi}{2}$ -->
      <g transform="translate(300.115598 399.88) scale(0.1 -0.1)">
       <defs>
        <path id="DejaVuSans-Oblique-3c0" d="M 584 3500 
L 3938 3500 
L 3825 2925 
L 3384 2925 
L 2966 775 
Q 2922 550 2981 450 
Q 3038 353 3209 353 
Q 3256 353 3325 363 
Q 3397 369 3419 372 
L 3338 -44 
Q 3222 -84 3103 -103 
Q 2981 -122 2866 -122 
Q 2491 -122 2388 81 
Q 2284 288 2391 838 
L 2797 2925 
L 1506 2925 
L 938 0 
L 350 0 
L 919 2925 
L 472 2925 
L 584 3500 
z
" transform="scale(0.015625)"/>
        <path id="DejaVuSans-32" d="M 1228 531 
L 3431 531 
L 3431 0 
L 469 0 
L 469 531 
Q 828 903 1448 1529 
Q 2069 2156 2228 2338 
Q 2531 2678 2651 2914 
Q 2772 3150 2772 3378 
Q 2772 3750 2511 3984 
Q 2250 4219 1831 4219 
Q 1534 4219 1204 4116 
Q 875 4013 500 3803 
L 500 4441 
Q 881 4594 1212 4672 
Q 1544 4750 1819 4750 
Q 2544 4750 2975 4387 
Q 3406 4025 3406 3419 
Q 3406 3131 3298 2873 
Q 3191 2616 2906 2266 
Q 2828 2175 2409 1742 
Q 1991 1309 1228 531 
z
" transform="scale(0.015625)"/>
       </defs>
       <use xlink:href="#DejaVuSans-Oblique-3c0" transform="translate(1 45.71875) scale(0.7)"/>
       <use xlink:href="#DejaVuSans-32" transform="translate(0 -38.81875) scale(0.7)"/>
       <path d="M 0 19.384375 
L 0 25.634375 
L 44.536133 25.634375 
L 44.536133 19.384375 
L 0 19.384375 
z
"/>
      </g>
     </g>
    </g>
    <g id="xtick_3">
     <g id="line2d_5">
      <path d="M 515.605492 384.48 
L 515.605492 51.84 
" clip-path="url(#p433ef96de1)" style="fill: none; stroke: #b0b0b0; stroke-width: 0.8; stroke-linecap: square"/>
     </g>
     <g id="line2d_6">
      <g>
       <use xlink:href="#m435055db10" x="515.605492" y="384.48" style="stroke: #000000; stroke-width: 0.8"/>
      </g>
     </g>
     <g id="text_3">
      <!-- $\pi$ -->
      <g transform="translate(512.555492 399.078438) scale(0.1 -0.1)">
       <use xlink:href="#DejaVuSans-Oblique-3c0" transform="translate(0 0.3125)"/>
      </g>
     </g>
    </g>
    <g id="text_4">
     <!-- $z$ -->
     <g transform="translate(366.35 415.478437) scale(0.1 -0.1)">
      <defs>
       <path id="DejaVuSans-Oblique-7a" d="M 744 3500 
L 3475 3500 
L 3372 2975 
L 738 459 
L 2913 459 
L 2822 0 
L -19 0 
L 84 525 
L 2719 3041 
L 653 3041 
L 744 3500 
z
" transform="scale(0.015625)"/>
      </defs>
      <use xlink:href="#DejaVuSans-Oblique-7a" transform="translate(0 0.3125)"/>
     </g>
    </g>
   </g>
   <g id="matplotlib.axis_2">
    <g id="ytick_1">
     <g id="line2d_7">
      <path d="M 90 337.28966 
L 648 337.28966 
" clip-path="url(#p433ef96de1)" style="fill: none; stroke: #b0b0b0; stroke-width: 0.8; stroke-linecap: square"/>
     </g>
     <g id="line2d_8">
      <defs>
       <path id="m4974cc15f1" d="M 0 0 
L -3.5 0 
" style="stroke: #000000; stroke-width: 0.8"/>
      </defs>
      <g>
       <use xlink:href="#m4974cc15f1" x="90" y="337.28966" style="stroke: #000000; stroke-width: 0.8"/>
      </g>
     </g>
     <g id="text_5">
      <!-- 2 -->
      <g transform="translate(76.6375 341.088879) scale(0.1 -0.1)">
       <use xlink:href="#DejaVuSans-32"/>
      </g>
     </g>
    </g>
    <g id="ytick_2">
     <g id="line2d_9">
      <path d="M 90 288.962717 
L 648 288.962717 
" clip-path="url(#p433ef96de1)" style="fill: none; stroke: #b0b0b0; stroke-width: 0.8; stroke-linecap: square"/>
     </g>
     <g id="line2d_10">
      <g>
       <use xlink:href="#m4974cc15f1" x="90" y="288.962717" style="stroke: #000000; stroke-width: 0.8"/>
      </g>
     </g>
     <g id="text_6">
      <!-- 4 -->
      <g transform="translate(76.6375 292.761936) scale(0.1 -0.1)">
       <defs>
        <path id="DejaVuSans-34" d="M 2419 4116 
L 825 1625 
L 2419 1625 
L 2419 4116 
z
M 2253 4666 
L 3047 4666 
L 3047 1625 
L 3713 1625 
L 3713 1100 
L 3047 1100 
L 3047 0 
L 2419 0 
L 2419 1100 
L 313 1100 
L 313 1709 
L 2253 4666 
z
" transform="scale(0.015625)"/>
       </defs>
       <use xlink:href="#DejaVuSans-34"/>
      </g>
     </g>
    </g>
    <g id="ytick_3">
     <g id="line2d_11">
      <path d="M 90 240.635774 
L 648 240.635774 
" clip-path="url(#p433ef96de1)" style="fill: none; stroke: #b0b0b0; stroke-width: 0.8; stroke-linecap: square"/>
     </g>
     <g id="line2d_12">
      <g>
       <use xlink:href="#m4974cc15f1" x="90" y="240.635774" style="stroke: #000000; stroke-width: 0.8"/>
      </g>
     </g>
     <g id="text_7">
      <!-- 6 -->
      <g transform="translate(76.6375 244.434992) scale(0.1 -0.1)">
       <defs>
        <path id="DejaVuSans-36" d="M 2113 2584 
Q 1688 2584 1439 2293 
Q 1191 2003 1191 1497 
Q 1191 994 1439 701 
Q 1688 409 2113 409 
Q 2538 409 2786 701 
Q 3034 994 3034 1497 
Q 3034 2003 2786 2293 
Q 2538 2584 2113 2584 
z
M 3366 4563 
L 3366 3988 
Q 3128 4100 2886 4159 
Q 2644 4219 2406 4219 
Q 1781 4219 1451 3797 
Q 1122 3375 1075 2522 
Q 1259 2794 1537 2939 
Q 1816 3084 2150 3084 
Q 2853 3084 3261 2657 
Q 3669 2231 3669 1497 
Q 3669 778 3244 343 
Q 2819 -91 2113 -91 
Q 1303 -91 875 529 
Q 447 1150 447 2328 
Q 447 3434 972 4092 
Q 1497 4750 2381 4750 
Q 2619 4750 2861 4703 
Q 3103 4656 3366 4563 
z
" transform="scale(0.015625)"/>
       </defs>
       <use xlink:href="#DejaVuSans-36"/>
      </g>
     </g>
    </g>
    <g id="ytick_4">
     <g id="line2d_13">
      <path d="M 90 192.30883 
L 648 192.30883 
" clip-path="url(#p433ef96de1)" style="fill: none; stroke: #b0b0b0; stroke-width: 0.8; stroke-linecap: square"/>
     </g>
     <g id="line2d_14">
      <g>
       <use xlink:href="#m4974cc15f1" x="90" y="192.30883" style="stroke: #000000; stroke-width: 0.8"/>
      </g>
     </g>
     <g id="text_8">
      <!-- 8 -->
      <g transform="translate(76.6375 196.108049) scale(0.1 -0.1)">
       <defs>
        <path id="DejaVuSans-38" d="M 2034 2216 
Q 1584 2216 1326 1975 
Q 1069 1734 1069 1313 
Q 1069 891 1326 650 
Q 1584 409 2034 409 
Q 2484 409 2743 651 
Q 3003 894 3003 1313 
Q 3003 1734 2745 1975 
Q 2488 2216 2034 2216 
z
M 1403 2484 
Q 997 2584 770 2862 
Q 544 3141 544 3541 
Q 544 4100 942 4425 
Q 1341 4750 2034 4750 
Q 2731 4750 3128 4425 
Q 3525 4100 3525 3541 
Q 3525 3141 3298 2862 
Q 3072 2584 2669 2484 
Q 3125 2378 3379 2068 
Q 3634 1759 3634 1313 
Q 3634 634 3220 271 
Q 2806 -91 2034 -91 
Q 1263 -91 848 271 
Q 434 634 434 1313 
Q 434 1759 690 2068 
Q 947 2378 1403 2484 
z
M 1172 3481 
Q 1172 3119 1398 2916 
Q 1625 2713 2034 2713 
Q 2441 2713 2670 2916 
Q 2900 3119 2900 3481 
Q 2900 3844 2670 4047 
Q 2441 4250 2034 4250 
Q 1625 4250 1398 4047 
Q 1172 3844 1172 3481 
z
" transform="scale(0.015625)"/>
       </defs>
       <use xlink:href="#DejaVuSans-38"/>
      </g>
     </g>
    </g>
    <g id="ytick_5">
     <g id="line2d_15">
      <path d="M 90 143.981887 
L 648 143.981887 
" clip-path="url(#p433ef96de1)" style="fill: none; stroke: #b0b0b0; stroke-width: 0.8; stroke-linecap: square"/>
     </g>
     <g id="line2d_16">
      <g>
       <use xlink:href="#m4974cc15f1" x="90" y="143.981887" style="stroke: #000000; stroke-width: 0.8"/>
      </g>
     </g>
     <g id="text_9">
      <!-- 10 -->
      <g transform="translate(70.275 147.781106) scale(0.1 -0.1)">
       <defs>
        <path id="DejaVuSans-31" d="M 794 531 
L 1825 531 
L 1825 4091 
L 703 3866 
L 703 4441 
L 1819 4666 
L 2450 4666 
L 2450 531 
L 3481 531 
L 3481 0 
L 794 0 
L 794 531 
z
" transform="scale(0.015625)"/>
       </defs>
       <use xlink:href="#DejaVuSans-31"/>
       <use xlink:href="#DejaVuSans-30" x="63.623047"/>
      </g>
     </g>
    </g>
    <g id="ytick_6">
     <g id="line2d_17">
      <path d="M 90 95.654943 
L 648 95.654943 
" clip-path="url(#p433ef96de1)" style="fill: none; stroke: #b0b0b0; stroke-width: 0.8; stroke-linecap: square"/>
     </g>
     <g id="line2d_18">
      <g>
       <use xlink:href="#m4974cc15f1" x="90" y="95.654943" style="stroke: #000000; stroke-width: 0.8"/>
      </g>
     </g>
     <g id="text_10">
      <!-- 12 -->
      <g transform="translate(70.275 99.454162) scale(0.1 -0.1)">
       <use xlink:href="#DejaVuSans-31"/>
       <use xlink:href="#DejaVuSans-32" x="63.623047"/>
      </g>
     </g>
    </g>
    <g id="text_11">
     <!-- $y$ -->
     <g transform="translate(64.175 221.16) rotate(-90) scale(0.1 -0.1)">
      <defs>
       <path id="DejaVuSans-Oblique-79" d="M 1588 -325 
Q 1188 -997 936 -1164 
Q 684 -1331 294 -1331 
L -159 -1331 
L -63 -850 
L 269 -850 
Q 509 -850 678 -719 
Q 847 -588 1056 -206 
L 1234 128 
L 459 3500 
L 1069 3500 
L 1650 819 
L 3256 3500 
L 3859 3500 
L 1588 -325 
z
" transform="scale(0.015625)"/>
      </defs>
      <use xlink:href="#DejaVuSans-Oblique-79" transform="translate(0 0.3125)"/>
     </g>
    </g>
   </g>
   <g id="line2d_19">
    <path d="M 103.959597 383.19217 
L 126.448246 379.028815 
L 142.322587 375.868366 
L 155.551204 372.999868 
L 166.134098 370.487566 
L 175.39413 368.079229 
L 183.3313 365.816757 
L 191.26847 363.325582 
L 197.882779 361.034554 
L 204.497088 358.503591 
L 209.788535 356.270285 
L 215.079981 353.814195 
L 220.371428 351.091479 
L 224.340014 348.841493 
L 228.308599 346.381238 
L 232.277184 343.674913 
L 236.245769 340.678234 
L 240.214354 337.335753 
L 242.860078 334.881329 
L 245.505801 332.216763 
L 248.151525 329.311542 
L 250.797248 326.128973 
L 253.442971 322.624536 
L 256.088695 318.743682 
L 258.734418 314.418826 
L 261.380142 309.565215 
L 264.025865 304.075099 
L 266.671589 297.80936 
L 269.317312 290.585199 
L 271.963036 282.157528 
L 273.285897 277.391932 
L 274.608759 272.189959 
L 275.931621 266.487654 
L 277.254482 260.207926 
L 278.577344 253.256993 
L 279.900206 245.519605 
L 281.223068 236.852529 
L 282.545929 227.075508 
L 283.868791 215.958467 
L 285.191653 203.203033 
L 286.514514 188.41515 
L 287.837376 171.063389 
L 289.160238 150.413366 
L 290.4831 125.420626 
L 291.805961 94.54769 
L 293.128823 55.434211 
L 294.551341 -1 
M 303.033395 -1 
L 303.091296 433 
M 366.843988 433 
L 369.854803 430.499798 
L 373.823388 427.508634 
L 377.791973 424.806963 
L 381.760558 422.35067 
L 387.052005 419.396624 
L 392.343452 416.748913 
L 397.634899 414.355283 
L 402.926346 412.174476 
L 409.540655 409.698047 
L 416.154963 407.451825 
L 424.092134 405.004439 
L 432.029304 402.777271 
L 441.289336 400.401829 
L 451.87223 397.91868 
L 463.777985 395.350442 
L 478.329464 392.445441 
L 496.849528 388.986906 
L 559.024029 377.587267 
L 573.575508 374.583468 
L 585.481264 371.899919 
L 596.064157 369.279941 
L 605.324189 366.749954 
L 613.26136 364.35659 
L 619.875668 362.165534 
L 626.489977 359.756096 
L 631.781424 357.639622 
L 631.781424 357.639622 
" clip-path="url(#p433ef96de1)" style="fill: none; stroke: #000000; stroke-width: 1.5; stroke-linecap: square"/>
   </g>
   <g id="line2d_20">
    <path d="M 154.249369 433 
L 158.196927 429.768607 
L 162.165513 426.849929 
L 166.134098 424.209499 
L 170.102683 421.805392 
L 175.39413 418.909692 
L 180.685577 416.31017 
L 185.977024 413.956754 
L 192.591332 411.301467 
L 199.205641 408.908636 
L 205.819949 406.731276 
L 213.75712 404.351343 
L 223.017152 401.833814 
L 233.600046 399.224852 
L 245.505801 396.550595 
L 258.734418 393.817328 
L 274.608759 390.764189 
L 298.42027 386.437371 
L 335.460398 379.710313 
L 351.334739 376.603433 
L 364.563356 373.801905 
L 376.469112 371.042239 
L 385.729144 368.686594 
L 394.989176 366.093332 
L 402.926346 363.631658 
L 409.540655 361.370824 
L 416.154963 358.876624 
L 421.44641 356.678721 
L 426.737857 354.264767 
L 432.029304 351.592672 
L 435.997889 349.387615 
L 439.966474 346.979689 
L 443.935059 344.334781 
L 447.903645 341.410808 
L 451.87223 338.155236 
L 455.840815 334.501606 
L 458.486538 331.803543 
L 461.132262 328.859828 
L 463.777985 325.632727 
L 466.423709 322.076394 
L 469.069432 318.134563 
L 471.715155 313.737411 
L 474.360879 308.797202 
L 477.006602 303.202155 
L 479.652326 296.807594 
L 482.298049 289.422883 
L 484.943773 280.791597 
L 486.266634 275.903066 
L 487.589496 270.560458 
L 488.912358 264.696248 
L 490.23522 258.228832 
L 491.558081 251.058649 
L 492.880943 243.062953 
L 494.203805 234.088656 
L 495.526666 223.942321 
L 496.849528 212.375945 
L 498.17239 199.066246 
L 499.495252 183.583761 
L 500.818113 165.345351 
L 502.140975 143.538711 
L 503.463837 116.997527 
L 504.786699 83.985041 
L 506.10956 41.796722 
L 507.123793 -1 
M 516.426244 -1 
L 516.460274 433 
M 579.434962 433 
L 582.83554 430.190911 
L 586.804125 427.230504 
L 590.77271 424.554802 
L 594.741296 422.120626 
L 600.032742 419.191294 
L 605.324189 416.563983 
L 610.615636 414.187369 
L 617.229945 411.508141 
L 623.844253 409.095758 
L 630.458562 406.902274 
L 631.781424 406.486381 
L 631.781424 406.486381 
" clip-path="url(#p433ef96de1)" style="fill: none; stroke: #0000ff; stroke-width: 1.5; stroke-linecap: square"/>
   </g>
   <g id="line2d_21">
    <path d="M 103.959597 145.193096 
L 105.282459 166.827592 
L 106.60532 184.944038 
L 107.928182 200.340192 
L 109.251044 213.589585 
L 110.573905 225.115127 
L 111.896767 235.23551 
L 113.219629 244.195447 
L 114.542491 252.185965 
L 115.865352 259.35836 
L 117.188214 265.834019 
L 118.511076 271.711463 
L 121.156799 281.98099 
L 123.802523 290.662965 
L 126.448246 298.107745 
L 129.09397 304.569856 
L 131.739693 310.238685 
L 134.385416 315.258082 
L 137.03114 319.739294 
L 139.676863 323.769724 
L 142.322587 327.419015 
L 144.96831 330.743363 
L 147.614034 333.788635 
L 150.259757 336.592658 
L 154.228342 340.413853 
L 158.196927 343.848053 
L 162.165513 346.962783 
L 166.134098 349.811942 
L 171.425545 353.272247 
L 176.716992 356.421102 
L 182.008438 359.325823 
L 188.622747 362.698969 
L 197.882779 367.115147 
L 211.111396 373.353195 
L 216.402843 376.129577 
L 219.048567 377.706736 
L 221.69429 379.552728 
L 223.017152 380.672106 
L 224.340014 382.082638 
L 225.662875 384.679056 
L 225.662875 384.679056 
" clip-path="url(#p433ef96de1)" style="fill: none; stroke: #ff0000; stroke-width: 1.5; stroke-linecap: square"/>
   </g>
   <g id="line2d_22">
    <path d="M 107.335829 -1 
L 107.928182 12.707748 
L 109.251044 39.026354 
L 110.573905 61.896793 
L 111.896767 81.95641 
L 113.219629 99.694597 
L 114.542491 115.49337 
L 115.865352 129.655285 
L 117.188214 142.423079 
L 118.511076 153.993754 
L 119.833938 164.528868 
L 122.479661 183.005293 
L 125.125384 198.682593 
L 127.771108 212.15574 
L 130.416831 223.862263 
L 133.062555 234.131098 
L 135.708278 243.214309 
L 138.354002 251.308308 
L 140.999725 258.56841 
L 143.645449 265.119052 
L 146.291172 271.061099 
L 148.936895 276.477179 
L 151.582619 281.435625 
L 154.228342 285.993439 
L 156.874066 290.19855 
L 159.519789 294.091547 
L 162.165513 297.707039 
L 166.134098 302.673759 
L 170.102683 307.165652 
L 174.071268 311.250565 
L 178.039853 314.984072 
L 182.008438 318.412135 
L 185.977024 321.573098 
L 189.945609 324.499211 
L 195.237056 328.082005 
L 200.528503 331.349398 
L 205.819949 334.345554 
L 211.111396 337.106967 
L 217.725705 340.274525 
L 224.340014 343.17163 
L 230.954322 345.838383 
L 238.891492 348.780691 
L 246.828663 351.485933 
L 256.088695 354.393781 
L 266.671589 357.45116 
L 278.577344 360.626218 
L 291.805961 363.914628 
L 311.648887 368.580462 
L 331.491813 373.277558 
L 340.751845 375.676883 
L 347.366154 377.610168 
L 351.334739 378.942722 
L 355.303324 380.532209 
L 357.949047 381.894947 
L 359.271909 382.791186 
L 360.594771 384.132954 
L 360.594771 384.132954 
" clip-path="url(#p433ef96de1)" style="fill: none; stroke: #008000; stroke-width: 1.5; stroke-linecap: square"/>
   </g>
   <g id="line2d_23">
    <path d="M 115.757658 -1 
L 115.865352 0.725341 
L 117.188214 19.827326 
L 118.511076 37.133581 
L 119.833938 52.886439 
L 122.479661 80.501274 
L 125.125384 103.917168 
L 127.771108 124.026558 
L 130.416831 141.485713 
L 133.062555 156.788014 
L 135.708278 170.311536 
L 138.354002 182.350871 
L 140.999725 193.13897 
L 143.645449 202.862461 
L 146.291172 211.672619 
L 148.936895 219.693359 
L 151.582619 227.027155 
L 154.228342 233.759483 
L 156.874066 239.962208 
L 159.519789 245.696189 
L 162.165513 251.013306 
L 164.811236 255.958061 
L 167.45696 260.568843 
L 171.425545 266.930447 
L 175.39413 272.709518 
L 179.362715 277.984109 
L 183.3313 282.818939 
L 187.299885 287.268127 
L 191.26847 291.377276 
L 195.237056 295.185086 
L 199.205641 298.724614 
L 203.174226 302.024265 
L 208.465673 306.092611 
L 213.75712 309.827284 
L 219.048567 313.269655 
L 224.340014 316.454568 
L 229.63146 319.411582 
L 236.245769 322.825472 
L 242.860078 325.964112 
L 249.474386 328.862264 
L 257.411557 332.063454 
L 265.348727 335.002443 
L 273.285897 337.714199 
L 282.545929 340.629453 
L 291.805961 343.313682 
L 302.388855 346.139339 
L 312.971749 348.74456 
L 324.877504 351.45258 
L 338.106122 354.229856 
L 352.657601 357.053888 
L 368.531941 359.914487 
L 388.374867 363.247901 
L 413.50924 367.225724 
L 454.517953 373.69161 
L 467.74657 376.015236 
L 477.006602 377.858643 
L 483.620911 379.395708 
L 487.589496 380.486319 
L 491.558081 381.834315 
L 494.203805 383.068595 
L 495.526666 383.990887 
L 495.526666 383.990887 
" clip-path="url(#p433ef96de1)" style="fill: none; stroke: #800080; stroke-width: 1.5; stroke-linecap: square"/>
   </g>
   <g id="line2d_24">
    <path d="M 124.205237 -1 
L 126.448246 23.286771 
L 129.09397 48.192085 
L 131.739693 69.915176 
L 134.385416 89.03062 
L 137.03114 105.982523 
L 139.676863 121.119563 
L 142.322587 134.719313 
L 144.96831 147.005493 
L 147.614034 158.160422 
L 150.259757 168.33417 
L 152.905481 177.651392 
L 155.551204 186.216484 
L 158.196927 194.117543 
L 160.842651 201.429424 
L 163.488374 208.216141 
L 166.134098 214.532759 
L 168.779821 220.426909 
L 171.425545 225.939995 
L 175.39413 233.573016 
L 179.362715 240.533035 
L 183.3313 246.906325 
L 187.299885 252.765024 
L 191.26847 258.169914 
L 195.237056 263.172574 
L 199.205641 267.817056 
L 203.174226 272.141213 
L 207.142811 276.17775 
L 211.111396 279.955071 
L 216.402843 284.630668 
L 221.69429 288.939669 
L 226.985737 292.92476 
L 232.277184 296.622266 
L 237.568631 300.063288 
L 242.860078 303.274614 
L 249.474386 307.000804 
L 256.088695 310.442946 
L 262.703003 313.633914 
L 269.317312 316.60173 
L 277.254482 319.902151 
L 285.191653 322.951037 
L 293.128823 325.778235 
L 302.388855 328.83008 
L 311.648887 331.648645 
L 322.231781 334.620751 
L 332.814675 337.361281 
L 344.72043 340.204646 
L 356.626186 342.828232 
L 369.854803 345.521423 
L 384.406282 348.252945 
L 400.280623 350.999103 
L 417.477825 353.743896 
L 435.997889 356.47907 
L 457.163677 359.379676 
L 482.298049 362.586014 
L 514.046731 366.390447 
L 580.189817 374.23728 
L 596.064157 376.375359 
L 607.969913 378.202941 
L 615.907083 379.632503 
L 621.19853 380.767335 
L 625.167115 381.804335 
L 627.812839 382.674562 
L 629.1357 383.218866 
L 630.458562 383.924265 
L 631.781424 385.616604 
L 631.781424 385.616604 
" clip-path="url(#p433ef96de1)" style="fill: none; stroke: #ffa500; stroke-width: 1.5; stroke-linecap: square"/>
   </g>
   <g id="patch_3">
    <path d="M 90 384.48 
L 90 51.84 
" style="fill: none; stroke: #000000; stroke-width: 0.8; stroke-linejoin: miter; stroke-linecap: square"/>
   </g>
   <g id="patch_4">
    <path d="M 648 384.48 
L 648 51.84 
" style="fill: none; stroke: #000000; stroke-width: 0.8; stroke-linejoin: miter; stroke-linecap: square"/>
   </g>
   <g id="patch_5">
    <path d="M 90 384.48 
L 648 384.48 
" style="fill: none; stroke: #000000; stroke-width: 0.8; stroke-linejoin: miter; stroke-linecap: square"/>
   </g>
   <g id="patch_6">
    <path d="M 90 51.84 
L 648 51.84 
" style="fill: none; stroke: #000000; stroke-width: 0.8; stroke-linejoin: miter; stroke-linecap: square"/>
   </g>
   <g id="text_12">
    <!-- Graphical solution of the transcendental equations for allowed energy in a finite square well -->
    <g transform="translate(92.235938 45.84) scale(0.12 -0.12)">
     <defs>
      <path id="DejaVuSans-47" d="M 3809 666 
L 3809 1919 
L 2778 1919 
L 2778 2438 
L 4434 2438 
L 4434 434 
Q 4069 175 3628 42 
Q 3188 -91 2688 -91 
Q 1594 -91 976 548 
Q 359 1188 359 2328 
Q 359 3472 976 4111 
Q 1594 4750 2688 4750 
Q 3144 4750 3555 4637 
Q 3966 4525 4313 4306 
L 4313 3634 
Q 3963 3931 3569 4081 
Q 3175 4231 2741 4231 
Q 1884 4231 1454 3753 
Q 1025 3275 1025 2328 
Q 1025 1384 1454 906 
Q 1884 428 2741 428 
Q 3075 428 3337 486 
Q 3600 544 3809 666 
z
" transform="scale(0.015625)"/>
      <path id="DejaVuSans-72" d="M 2631 2963 
Q 2534 3019 2420 3045 
Q 2306 3072 2169 3072 
Q 1681 3072 1420 2755 
Q 1159 2438 1159 1844 
L 1159 0 
L 581 0 
L 581 3500 
L 1159 3500 
L 1159 2956 
Q 1341 3275 1631 3429 
Q 1922 3584 2338 3584 
Q 2397 3584 2469 3576 
Q 2541 3569 2628 3553 
L 2631 2963 
z
" transform="scale(0.015625)"/>
      <path id="DejaVuSans-61" d="M 2194 1759 
Q 1497 1759 1228 1600 
Q 959 1441 959 1056 
Q 959 750 1161 570 
Q 1363 391 1709 391 
Q 2188 391 2477 730 
Q 2766 1069 2766 1631 
L 2766 1759 
L 2194 1759 
z
M 3341 1997 
L 3341 0 
L 2766 0 
L 2766 531 
Q 2569 213 2275 61 
Q 1981 -91 1556 -91 
Q 1019 -91 701 211 
Q 384 513 384 1019 
Q 384 1609 779 1909 
Q 1175 2209 1959 2209 
L 2766 2209 
L 2766 2266 
Q 2766 2663 2505 2880 
Q 2244 3097 1772 3097 
Q 1472 3097 1187 3025 
Q 903 2953 641 2809 
L 641 3341 
Q 956 3463 1253 3523 
Q 1550 3584 1831 3584 
Q 2591 3584 2966 3190 
Q 3341 2797 3341 1997 
z
" transform="scale(0.015625)"/>
      <path id="DejaVuSans-70" d="M 1159 525 
L 1159 -1331 
L 581 -1331 
L 581 3500 
L 1159 3500 
L 1159 2969 
Q 1341 3281 1617 3432 
Q 1894 3584 2278 3584 
Q 2916 3584 3314 3078 
Q 3713 2572 3713 1747 
Q 3713 922 3314 415 
Q 2916 -91 2278 -91 
Q 1894 -91 1617 61 
Q 1341 213 1159 525 
z
M 3116 1747 
Q 3116 2381 2855 2742 
Q 2594 3103 2138 3103 
Q 1681 3103 1420 2742 
Q 1159 2381 1159 1747 
Q 1159 1113 1420 752 
Q 1681 391 2138 391 
Q 2594 391 2855 752 
Q 3116 1113 3116 1747 
z
" transform="scale(0.015625)"/>
      <path id="DejaVuSans-68" d="M 3513 2113 
L 3513 0 
L 2938 0 
L 2938 2094 
Q 2938 2591 2744 2837 
Q 2550 3084 2163 3084 
Q 1697 3084 1428 2787 
Q 1159 2491 1159 1978 
L 1159 0 
L 581 0 
L 581 4863 
L 1159 4863 
L 1159 2956 
Q 1366 3272 1645 3428 
Q 1925 3584 2291 3584 
Q 2894 3584 3203 3211 
Q 3513 2838 3513 2113 
z
" transform="scale(0.015625)"/>
      <path id="DejaVuSans-69" d="M 603 3500 
L 1178 3500 
L 1178 0 
L 603 0 
L 603 3500 
z
M 603 4863 
L 1178 4863 
L 1178 4134 
L 603 4134 
L 603 4863 
z
" transform="scale(0.015625)"/>
      <path id="DejaVuSans-63" d="M 3122 3366 
L 3122 2828 
Q 2878 2963 2633 3030 
Q 2388 3097 2138 3097 
Q 1578 3097 1268 2742 
Q 959 2388 959 1747 
Q 959 1106 1268 751 
Q 1578 397 2138 397 
Q 2388 397 2633 464 
Q 2878 531 3122 666 
L 3122 134 
Q 2881 22 2623 -34 
Q 2366 -91 2075 -91 
Q 1284 -91 818 406 
Q 353 903 353 1747 
Q 353 2603 823 3093 
Q 1294 3584 2113 3584 
Q 2378 3584 2631 3529 
Q 2884 3475 3122 3366 
z
" transform="scale(0.015625)"/>
      <path id="DejaVuSans-6c" d="M 603 4863 
L 1178 4863 
L 1178 0 
L 603 0 
L 603 4863 
z
" transform="scale(0.015625)"/>
      <path id="DejaVuSans-20" transform="scale(0.015625)"/>
      <path id="DejaVuSans-73" d="M 2834 3397 
L 2834 2853 
Q 2591 2978 2328 3040 
Q 2066 3103 1784 3103 
Q 1356 3103 1142 2972 
Q 928 2841 928 2578 
Q 928 2378 1081 2264 
Q 1234 2150 1697 2047 
L 1894 2003 
Q 2506 1872 2764 1633 
Q 3022 1394 3022 966 
Q 3022 478 2636 193 
Q 2250 -91 1575 -91 
Q 1294 -91 989 -36 
Q 684 19 347 128 
L 347 722 
Q 666 556 975 473 
Q 1284 391 1588 391 
Q 1994 391 2212 530 
Q 2431 669 2431 922 
Q 2431 1156 2273 1281 
Q 2116 1406 1581 1522 
L 1381 1569 
Q 847 1681 609 1914 
Q 372 2147 372 2553 
Q 372 3047 722 3315 
Q 1072 3584 1716 3584 
Q 2034 3584 2315 3537 
Q 2597 3491 2834 3397 
z
" transform="scale(0.015625)"/>
      <path id="DejaVuSans-6f" d="M 1959 3097 
Q 1497 3097 1228 2736 
Q 959 2375 959 1747 
Q 959 1119 1226 758 
Q 1494 397 1959 397 
Q 2419 397 2687 759 
Q 2956 1122 2956 1747 
Q 2956 2369 2687 2733 
Q 2419 3097 1959 3097 
z
M 1959 3584 
Q 2709 3584 3137 3096 
Q 3566 2609 3566 1747 
Q 3566 888 3137 398 
Q 2709 -91 1959 -91 
Q 1206 -91 779 398 
Q 353 888 353 1747 
Q 353 2609 779 3096 
Q 1206 3584 1959 3584 
z
" transform="scale(0.015625)"/>
      <path id="DejaVuSans-75" d="M 544 1381 
L 544 3500 
L 1119 3500 
L 1119 1403 
Q 1119 906 1312 657 
Q 1506 409 1894 409 
Q 2359 409 2629 706 
Q 2900 1003 2900 1516 
L 2900 3500 
L 3475 3500 
L 3475 0 
L 2900 0 
L 2900 538 
Q 2691 219 2414 64 
Q 2138 -91 1772 -91 
Q 1169 -91 856 284 
Q 544 659 544 1381 
z
M 1991 3584 
L 1991 3584 
z
" transform="scale(0.015625)"/>
      <path id="DejaVuSans-74" d="M 1172 4494 
L 1172 3500 
L 2356 3500 
L 2356 3053 
L 1172 3053 
L 1172 1153 
Q 1172 725 1289 603 
Q 1406 481 1766 481 
L 2356 481 
L 2356 0 
L 1766 0 
Q 1100 0 847 248 
Q 594 497 594 1153 
L 594 3053 
L 172 3053 
L 172 3500 
L 594 3500 
L 594 4494 
L 1172 4494 
z
" transform="scale(0.015625)"/>
      <path id="DejaVuSans-6e" d="M 3513 2113 
L 3513 0 
L 2938 0 
L 2938 2094 
Q 2938 2591 2744 2837 
Q 2550 3084 2163 3084 
Q 1697 3084 1428 2787 
Q 1159 2491 1159 1978 
L 1159 0 
L 581 0 
L 581 3500 
L 1159 3500 
L 1159 2956 
Q 1366 3272 1645 3428 
Q 1925 3584 2291 3584 
Q 2894 3584 3203 3211 
Q 3513 2838 3513 2113 
z
" transform="scale(0.015625)"/>
      <path id="DejaVuSans-66" d="M 2375 4863 
L 2375 4384 
L 1825 4384 
Q 1516 4384 1395 4259 
Q 1275 4134 1275 3809 
L 1275 3500 
L 2222 3500 
L 2222 3053 
L 1275 3053 
L 1275 0 
L 697 0 
L 697 3053 
L 147 3053 
L 147 3500 
L 697 3500 
L 697 3744 
Q 697 4328 969 4595 
Q 1241 4863 1831 4863 
L 2375 4863 
z
" transform="scale(0.015625)"/>
      <path id="DejaVuSans-65" d="M 3597 1894 
L 3597 1613 
L 953 1613 
Q 991 1019 1311 708 
Q 1631 397 2203 397 
Q 2534 397 2845 478 
Q 3156 559 3463 722 
L 3463 178 
Q 3153 47 2828 -22 
Q 2503 -91 2169 -91 
Q 1331 -91 842 396 
Q 353 884 353 1716 
Q 353 2575 817 3079 
Q 1281 3584 2069 3584 
Q 2775 3584 3186 3129 
Q 3597 2675 3597 1894 
z
M 3022 2063 
Q 3016 2534 2758 2815 
Q 2500 3097 2075 3097 
Q 1594 3097 1305 2825 
Q 1016 2553 972 2059 
L 3022 2063 
z
" transform="scale(0.015625)"/>
      <path id="DejaVuSans-64" d="M 2906 2969 
L 2906 4863 
L 3481 4863 
L 3481 0 
L 2906 0 
L 2906 525 
Q 2725 213 2448 61 
Q 2172 -91 1784 -91 
Q 1150 -91 751 415 
Q 353 922 353 1747 
Q 353 2572 751 3078 
Q 1150 3584 1784 3584 
Q 2172 3584 2448 3432 
Q 2725 3281 2906 2969 
z
M 947 1747 
Q 947 1113 1208 752 
Q 1469 391 1925 391 
Q 2381 391 2643 752 
Q 2906 1113 2906 1747 
Q 2906 2381 2643 2742 
Q 2381 3103 1925 3103 
Q 1469 3103 1208 2742 
Q 947 2381 947 1747 
z
" transform="scale(0.015625)"/>
      <path id="DejaVuSans-71" d="M 947 1747 
Q 947 1113 1208 752 
Q 1469 391 1925 391 
Q 2381 391 2643 752 
Q 2906 1113 2906 1747 
Q 2906 2381 2643 2742 
Q 2381 3103 1925 3103 
Q 1469 3103 1208 2742 
Q 947 2381 947 1747 
z
M 2906 525 
Q 2725 213 2448 61 
Q 2172 -91 1784 -91 
Q 1150 -91 751 415 
Q 353 922 353 1747 
Q 353 2572 751 3078 
Q 1150 3584 1784 3584 
Q 2172 3584 2448 3432 
Q 2725 3281 2906 2969 
L 2906 3500 
L 3481 3500 
L 3481 -1331 
L 2906 -1331 
L 2906 525 
z
" transform="scale(0.015625)"/>
      <path id="DejaVuSans-77" d="M 269 3500 
L 844 3500 
L 1563 769 
L 2278 3500 
L 2956 3500 
L 3675 769 
L 4391 3500 
L 4966 3500 
L 4050 0 
L 3372 0 
L 2619 2869 
L 1863 0 
L 1184 0 
L 269 3500 
z
" transform="scale(0.015625)"/>
      <path id="DejaVuSans-67" d="M 2906 1791 
Q 2906 2416 2648 2759 
Q 2391 3103 1925 3103 
Q 1463 3103 1205 2759 
Q 947 2416 947 1791 
Q 947 1169 1205 825 
Q 1463 481 1925 481 
Q 2391 481 2648 825 
Q 2906 1169 2906 1791 
z
M 3481 434 
Q 3481 -459 3084 -895 
Q 2688 -1331 1869 -1331 
Q 1566 -1331 1297 -1286 
Q 1028 -1241 775 -1147 
L 775 -588 
Q 1028 -725 1275 -790 
Q 1522 -856 1778 -856 
Q 2344 -856 2625 -561 
Q 2906 -266 2906 331 
L 2906 616 
Q 2728 306 2450 153 
Q 2172 0 1784 0 
Q 1141 0 747 490 
Q 353 981 353 1791 
Q 353 2603 747 3093 
Q 1141 3584 1784 3584 
Q 2172 3584 2450 3431 
Q 2728 3278 2906 2969 
L 2906 3500 
L 3481 3500 
L 3481 434 
z
" transform="scale(0.015625)"/>
      <path id="DejaVuSans-79" d="M 2059 -325 
Q 1816 -950 1584 -1140 
Q 1353 -1331 966 -1331 
L 506 -1331 
L 506 -850 
L 844 -850 
Q 1081 -850 1212 -737 
Q 1344 -625 1503 -206 
L 1606 56 
L 191 3500 
L 800 3500 
L 1894 763 
L 2988 3500 
L 3597 3500 
L 2059 -325 
z
" transform="scale(0.015625)"/>
     </defs>
     <use xlink:href="#DejaVuSans-47"/>
     <use xlink:href="#DejaVuSans-72" x="77.490234"/>
     <use xlink:href="#DejaVuSans-61" x="118.603516"/>
     <use xlink:href="#DejaVuSans-70" x="179.882812"/>
     <use xlink:href="#DejaVuSans-68" x="243.359375"/>
     <use xlink:href="#DejaVuSans-69" x="306.738281"/>
     <use xlink:href="#DejaVuSans-63" x="334.521484"/>
     <use xlink:href="#DejaVuSans-61" x="389.501953"/>
     <use xlink:href="#DejaVuSans-6c" x="450.78125"/>
     <use xlink:href="#DejaVuSans-20" x="478.564453"/>
     <use xlink:href="#DejaVuSans-73" x="510.351562"/>
     <use xlink:href="#DejaVuSans-6f" x="562.451172"/>
     <use xlink:href="#DejaVuSans-6c" x="623.632812"/>
     <use xlink:href="#DejaVuSans-75" x="651.416016"/>
     <use xlink:href="#DejaVuSans-74" x="714.794922"/>
     <use xlink:href="#DejaVuSans-69" x="754.003906"/>
     <use xlink:href="#DejaVuSans-6f" x="781.787109"/>
     <use xlink:href="#DejaVuSans-6e" x="842.96875"/>
     <use xlink:href="#DejaVuSans-20" x="906.347656"/>
     <use xlink:href="#DejaVuSans-6f" x="938.134766"/>
     <use xlink:href="#DejaVuSans-66" x="999.316406"/>
     <use xlink:href="#DejaVuSans-20" x="1034.521484"/>
     <use xlink:href="#DejaVuSans-74" x="1066.308594"/>
     <use xlink:href="#DejaVuSans-68" x="1105.517578"/>
     <use xlink:href="#DejaVuSans-65" x="1168.896484"/>
     <use xlink:href="#DejaVuSans-20" x="1230.419922"/>
     <use xlink:href="#DejaVuSans-74" x="1262.207031"/>
     <use xlink:href="#DejaVuSans-72" x="1301.416016"/>
     <use xlink:href="#DejaVuSans-61" x="1342.529297"/>
     <use xlink:href="#DejaVuSans-6e" x="1403.808594"/>
     <use xlink:href="#DejaVuSans-73" x="1467.1875"/>
     <use xlink:href="#DejaVuSans-63" x="1519.287109"/>
     <use xlink:href="#DejaVuSans-65" x="1574.267578"/>
     <use xlink:href="#DejaVuSans-6e" x="1635.791016"/>
     <use xlink:href="#DejaVuSans-64" x="1699.169922"/>
     <use xlink:href="#DejaVuSans-65" x="1762.646484"/>
     <use xlink:href="#DejaVuSans-6e" x="1824.169922"/>
     <use xlink:href="#DejaVuSans-74" x="1887.548828"/>
     <use xlink:href="#DejaVuSans-61" x="1926.757812"/>
     <use xlink:href="#DejaVuSans-6c" x="1988.037109"/>
     <use xlink:href="#DejaVuSans-20" x="2015.820312"/>
     <use xlink:href="#DejaVuSans-65" x="2047.607422"/>
     <use xlink:href="#DejaVuSans-71" x="2109.130859"/>
     <use xlink:href="#DejaVuSans-75" x="2172.607422"/>
     <use xlink:href="#DejaVuSans-61" x="2235.986328"/>
     <use xlink:href="#DejaVuSans-74" x="2297.265625"/>
     <use xlink:href="#DejaVuSans-69" x="2336.474609"/>
     <use xlink:href="#DejaVuSans-6f" x="2364.257812"/>
     <use xlink:href="#DejaVuSans-6e" x="2425.439453"/>
     <use xlink:href="#DejaVuSans-73" x="2488.818359"/>
     <use xlink:href="#DejaVuSans-20" x="2540.917969"/>
     <use xlink:href="#DejaVuSans-66" x="2572.705078"/>
     <use xlink:href="#DejaVuSans-6f" x="2607.910156"/>
     <use xlink:href="#DejaVuSans-72" x="2669.091797"/>
     <use xlink:href="#DejaVuSans-20" x="2710.205078"/>
     <use xlink:href="#DejaVuSans-61" x="2741.992188"/>
     <use xlink:href="#DejaVuSans-6c" x="2803.271484"/>
     <use xlink:href="#DejaVuSans-6c" x="2831.054688"/>
     <use xlink:href="#DejaVuSans-6f" x="2858.837891"/>
     <use xlink:href="#DejaVuSans-77" x="2920.019531"/>
     <use xlink:href="#DejaVuSans-65" x="3001.806641"/>
     <use xlink:href="#DejaVuSans-64" x="3063.330078"/>
     <use xlink:href="#DejaVuSans-20" x="3126.806641"/>
     <use xlink:href="#DejaVuSans-65" x="3158.59375"/>
     <use xlink:href="#DejaVuSans-6e" x="3220.117188"/>
     <use xlink:href="#DejaVuSans-65" x="3283.496094"/>
     <use xlink:href="#DejaVuSans-72" x="3345.019531"/>
     <use xlink:href="#DejaVuSans-67" x="3384.382812"/>
     <use xlink:href="#DejaVuSans-79" x="3447.859375"/>
     <use xlink:href="#DejaVuSans-20" x="3507.039062"/>
     <use xlink:href="#DejaVuSans-69" x="3538.826172"/>
     <use xlink:href="#DejaVuSans-6e" x="3566.609375"/>
     <use xlink:href="#DejaVuSans-20" x="3629.988281"/>
     <use xlink:href="#DejaVuSans-61" x="3661.775391"/>
     <use xlink:href="#DejaVuSans-20" x="3723.054688"/>
     <use xlink:href="#DejaVuSans-66" x="3754.841797"/>
     <use xlink:href="#DejaVuSans-69" x="3790.046875"/>
     <use xlink:href="#DejaVuSans-6e" x="3817.830078"/>
     <use xlink:href="#DejaVuSans-69" x="3881.208984"/>
     <use xlink:href="#DejaVuSans-74" x="3908.992188"/>
     <use xlink:href="#DejaVuSans-65" x="3948.201172"/>
     <use xlink:href="#DejaVuSans-20" x="4009.724609"/>
     <use xlink:href="#DejaVuSans-73" x="4041.511719"/>
     <use xlink:href="#DejaVuSans-71" x="4093.611328"/>
     <use xlink:href="#DejaVuSans-75" x="4157.087891"/>
     <use xlink:href="#DejaVuSans-61" x="4220.466797"/>
     <use xlink:href="#DejaVuSans-72" x="4281.746094"/>
     <use xlink:href="#DejaVuSans-65" x="4320.609375"/>
     <use xlink:href="#DejaVuSans-20" x="4382.132812"/>
     <use xlink:href="#DejaVuSans-77" x="4413.919922"/>
     <use xlink:href="#DejaVuSans-65" x="4495.707031"/>
     <use xlink:href="#DejaVuSans-6c" x="4557.230469"/>
     <use xlink:href="#DejaVuSans-6c" x="4585.013672"/>
    </g>
   </g>
   <g id="legend_1">
    <g id="patch_7">
     <path d="M 538.8 171.4525 
L 641 171.4525 
Q 643 171.4525 643 169.4525 
L 643 58.84 
Q 643 56.84 641 56.84 
L 538.8 56.84 
Q 536.8 56.84 536.8 58.84 
L 536.8 169.4525 
Q 536.8 171.4525 538.8 171.4525 
z
" style="fill: #ffffff; opacity: 0.8; stroke: #cccccc; stroke-linejoin: miter"/>
    </g>
    <g id="line2d_25">
     <path d="M 540.8 64.94 
L 550.8 64.94 
L 560.8 64.94 
" style="fill: none; stroke: #000000; stroke-width: 1.5; stroke-linecap: square"/>
    </g>
    <g id="text_13">
     <!-- $y=\tan(z)$ -->
     <g transform="translate(568.8 68.44) scale(0.1 -0.1)">
      <defs>
       <path id="DejaVuSans-3d" d="M 678 2906 
L 4684 2906 
L 4684 2381 
L 678 2381 
L 678 2906 
z
M 678 1631 
L 4684 1631 
L 4684 1100 
L 678 1100 
L 678 1631 
z
" transform="scale(0.015625)"/>
       <path id="DejaVuSans-28" d="M 1984 4856 
Q 1566 4138 1362 3434 
Q 1159 2731 1159 2009 
Q 1159 1288 1364 580 
Q 1569 -128 1984 -844 
L 1484 -844 
Q 1016 -109 783 600 
Q 550 1309 550 2009 
Q 550 2706 781 3412 
Q 1013 4119 1484 4856 
L 1984 4856 
z
" transform="scale(0.015625)"/>
       <path id="DejaVuSans-29" d="M 513 4856 
L 1013 4856 
Q 1481 4119 1714 3412 
Q 1947 2706 1947 2009 
Q 1947 1309 1714 600 
Q 1481 -109 1013 -844 
L 513 -844 
Q 928 -128 1133 580 
Q 1338 1288 1338 2009 
Q 1338 2731 1133 3434 
Q 928 4138 513 4856 
z
" transform="scale(0.015625)"/>
      </defs>
      <use xlink:href="#DejaVuSans-Oblique-79" transform="translate(0 0.125)"/>
      <use xlink:href="#DejaVuSans-3d" transform="translate(78.662109 0.125)"/>
      <use xlink:href="#DejaVuSans-74" transform="translate(181.933594 0.125)"/>
      <use xlink:href="#DejaVuSans-61" transform="translate(221.142578 0.125)"/>
      <use xlink:href="#DejaVuSans-6e" transform="translate(282.421875 0.125)"/>
      <use xlink:href="#DejaVuSans-28" transform="translate(345.800781 0.125)"/>
      <use xlink:href="#DejaVuSans-Oblique-7a" transform="translate(384.814453 0.125)"/>
      <use xlink:href="#DejaVuSans-29" transform="translate(437.304688 0.125)"/>
     </g>
    </g>
    <g id="line2d_26">
     <path d="M 540.8 80.44 
L 550.8 80.44 
L 560.8 80.44 
" style="fill: none; stroke: #0000ff; stroke-width: 1.5; stroke-linecap: square"/>
    </g>
    <g id="text_14">
     <!-- $y=\tan\left(z-\frac{\pi}{2}\right)$ -->
     <g transform="translate(568.8 83.94) scale(0.1 -0.1)">
      <defs>
       <path id="STIXSizeOneSym-Regular-28" d="M 2445 -858 
L 2445 -1050 
Q 1728 -371 1309 630 
Q 890 1632 890 2886 
Q 890 4122 1309 5136 
Q 1728 6150 2445 6822 
L 2445 6630 
Q 1408 5363 1408 2886 
Q 1408 410 2445 -858 
z
" transform="scale(0.015625)"/>
       <path id="DejaVuSans-2212" d="M 678 2272 
L 4684 2272 
L 4684 1741 
L 678 1741 
L 678 2272 
z
" transform="scale(0.015625)"/>
       <path id="STIXSizeOneSym-Regular-29" d="M 550 6630 
L 550 6822 
Q 1267 6144 1686 5142 
Q 2106 4141 2106 2886 
Q 2106 1651 1686 636 
Q 1267 -378 550 -1050 
L 550 -858 
Q 1587 410 1587 2886 
Q 1587 5363 550 6630 
z
" transform="scale(0.015625)"/>
      </defs>
      <use xlink:href="#DejaVuSans-Oblique-79" transform="translate(0 0.40625)"/>
      <use xlink:href="#DejaVuSans-3d" transform="translate(78.662109 0.40625)"/>
      <use xlink:href="#DejaVuSans-74" transform="translate(181.933594 0.40625)"/>
      <use xlink:href="#DejaVuSans-61" transform="translate(221.142578 0.40625)"/>
      <use xlink:href="#DejaVuSans-6e" transform="translate(282.421875 0.40625)"/>
      <use xlink:href="#STIXSizeOneSym-Regular-28" transform="translate(362.036458 -22.59375) scale(0.998526)"/>
      <use xlink:href="#DejaVuSans-Oblique-7a" transform="translate(408.777958 0.40625)"/>
      <use xlink:href="#DejaVuSans-2212" transform="translate(480.750615 0.40625)"/>
      <use xlink:href="#DejaVuSans-Oblique-3c0" transform="translate(585.022099 45.5375) scale(0.7)"/>
      <use xlink:href="#DejaVuSans-32" transform="translate(584.022099 -39) scale(0.7)"/>
      <use xlink:href="#STIXSizeOneSym-Regular-29" transform="translate(641.058232 -22.59375) scale(0.998526)"/>
      <path d="M 584.022099 19.203125 
L 584.022099 25.453125 
L 628.558232 25.453125 
L 628.558232 19.203125 
L 584.022099 19.203125 
z
"/>
     </g>
    </g>
    <g id="line2d_27">
     <path d="M 540.8 102.64 
L 550.8 102.64 
L 560.8 102.64 
" style="fill: none; stroke: #ffffff; stroke-width: 1.5; stroke-linecap: square"/>
    </g>
    <g id="text_15">
     <!-- $y=\sqrt{\left(\frac{z_0}{z}\right)^2 - 1}$ -->
     <g transform="translate(568.8 106.14) scale(0.1 -0.1)">
      <defs>
       <path id="STIXSizeOneSym-Regular-221a" d="M 6970 9933 
L 3373 -1888 
L 3104 -1888 
L 1626 2918 
Q 1555 3149 1465 3251 
Q 1376 3354 1229 3354 
Q 1011 3354 794 3181 
L 717 3309 
L 1766 4115 
L 1926 4115 
L 3379 -602 
L 3405 -602 
L 6605 9933 
L 6970 9933 
z
" transform="scale(0.015625)"/>
      </defs>
      <use xlink:href="#DejaVuSans-Oblique-79" transform="translate(0 0.28125)"/>
      <use xlink:href="#DejaVuSans-3d" transform="translate(78.662109 0.28125)"/>
      <use xlink:href="#STIXSizeOneSym-Regular-221a" transform="translate(181.933594 -1.265625) scale(0.821842)"/>
      <use xlink:href="#STIXSizeOneSym-Regular-28" transform="translate(281.239716 -9.71875) scale(0.975558)"/>
      <use xlink:href="#DejaVuSans-Oblique-7a" transform="translate(326.869705 55.915469) scale(0.7)"/>
      <use xlink:href="#DejaVuSans-30" transform="translate(363.612869 44.431094) scale(0.49)"/>
      <use xlink:href="#DejaVuSans-Oblique-7a" transform="translate(343.869705 -25.796875) scale(0.7)"/>
      <use xlink:href="#STIXSizeOneSym-Regular-29" transform="translate(409.202225 -9.71875) scale(0.975558)"/>
      <use xlink:href="#DejaVuSans-32" transform="translate(455.789246 38.21875) scale(0.7)"/>
      <use xlink:href="#DejaVuSans-2212" transform="translate(522.542175 -0.0625)"/>
      <use xlink:href="#DejaVuSans-31" transform="translate(625.81366 -0.0625)"/>
      <path d="M 268.739716 119.5 
L 268.739716 125.75 
L 701.936707 125.75 
L 701.936707 119.5 
L 268.739716 119.5 
z
"/>
      <path d="M 326.869705 18.734375 
L 326.869705 24.984375 
L 396.702225 24.984375 
L 396.702225 18.734375 
L 326.869705 18.734375 
z
"/>
     </g>
    </g>
    <g id="line2d_28">
     <path d="M 540.8 117.838437 
L 550.8 117.838437 
L 560.8 117.838437 
" style="fill: none; stroke: #ff0000; stroke-width: 1.5; stroke-linecap: square"/>
    </g>
    <g id="text_16">
     <!--     $z_0=1.0$ -->
     <g transform="translate(568.8 121.338437) scale(0.1 -0.1)">
      <defs>
       <path id="DejaVuSans-2e" d="M 684 794 
L 1344 794 
L 1344 0 
L 684 0 
L 684 794 
z
" transform="scale(0.015625)"/>
      </defs>
      <use xlink:href="#DejaVuSans-20" transform="translate(0 0.78125)"/>
      <use xlink:href="#DejaVuSans-20" transform="translate(31.787109 0.78125)"/>
      <use xlink:href="#DejaVuSans-20" transform="translate(63.574219 0.78125)"/>
      <use xlink:href="#DejaVuSans-20" transform="translate(95.361328 0.78125)"/>
      <use xlink:href="#DejaVuSans-Oblique-7a" transform="translate(127.148438 0.78125)"/>
      <use xlink:href="#DejaVuSans-30" transform="translate(179.638672 -15.625) scale(0.7)"/>
      <use xlink:href="#DejaVuSans-3d" transform="translate(246.391602 0.78125)"/>
      <use xlink:href="#DejaVuSans-31" transform="translate(349.663086 0.78125)"/>
      <use xlink:href="#DejaVuSans-2e" transform="translate(413.286133 0.78125)"/>
      <use xlink:href="#DejaVuSans-30" transform="translate(445.073242 0.78125)"/>
     </g>
    </g>
    <g id="line2d_29">
     <path d="M 540.8 132.516562 
L 550.8 132.516562 
L 560.8 132.516562 
" style="fill: none; stroke: #008000; stroke-width: 1.5; stroke-linecap: square"/>
    </g>
    <g id="text_17">
     <!--     $z_0=2.0$ -->
     <g transform="translate(568.8 136.016562) scale(0.1 -0.1)">
      <use xlink:href="#DejaVuSans-20" transform="translate(0 0.78125)"/>
      <use xlink:href="#DejaVuSans-20" transform="translate(31.787109 0.78125)"/>
      <use xlink:href="#DejaVuSans-20" transform="translate(63.574219 0.78125)"/>
      <use xlink:href="#DejaVuSans-20" transform="translate(95.361328 0.78125)"/>
      <use xlink:href="#DejaVuSans-Oblique-7a" transform="translate(127.148438 0.78125)"/>
      <use xlink:href="#DejaVuSans-30" transform="translate(179.638672 -15.625) scale(0.7)"/>
      <use xlink:href="#DejaVuSans-3d" transform="translate(246.391602 0.78125)"/>
      <use xlink:href="#DejaVuSans-32" transform="translate(349.663086 0.78125)"/>
      <use xlink:href="#DejaVuSans-2e" transform="translate(413.286133 0.78125)"/>
      <use xlink:href="#DejaVuSans-30" transform="translate(445.073242 0.78125)"/>
     </g>
    </g>
    <g id="line2d_30">
     <path d="M 540.8 147.194687 
L 550.8 147.194687 
L 560.8 147.194687 
" style="fill: none; stroke: #800080; stroke-width: 1.5; stroke-linecap: square"/>
    </g>
    <g id="text_18">
     <!--     $z_0=3.0$ -->
     <g transform="translate(568.8 150.694687) scale(0.1 -0.1)">
      <defs>
       <path id="DejaVuSans-33" d="M 2597 2516 
Q 3050 2419 3304 2112 
Q 3559 1806 3559 1356 
Q 3559 666 3084 287 
Q 2609 -91 1734 -91 
Q 1441 -91 1130 -33 
Q 819 25 488 141 
L 488 750 
Q 750 597 1062 519 
Q 1375 441 1716 441 
Q 2309 441 2620 675 
Q 2931 909 2931 1356 
Q 2931 1769 2642 2001 
Q 2353 2234 1838 2234 
L 1294 2234 
L 1294 2753 
L 1863 2753 
Q 2328 2753 2575 2939 
Q 2822 3125 2822 3475 
Q 2822 3834 2567 4026 
Q 2313 4219 1838 4219 
Q 1578 4219 1281 4162 
Q 984 4106 628 3988 
L 628 4550 
Q 988 4650 1302 4700 
Q 1616 4750 1894 4750 
Q 2613 4750 3031 4423 
Q 3450 4097 3450 3541 
Q 3450 3153 3228 2886 
Q 3006 2619 2597 2516 
z
" transform="scale(0.015625)"/>
      </defs>
      <use xlink:href="#DejaVuSans-20" transform="translate(0 0.78125)"/>
      <use xlink:href="#DejaVuSans-20" transform="translate(31.787109 0.78125)"/>
      <use xlink:href="#DejaVuSans-20" transform="translate(63.574219 0.78125)"/>
      <use xlink:href="#DejaVuSans-20" transform="translate(95.361328 0.78125)"/>
      <use xlink:href="#DejaVuSans-Oblique-7a" transform="translate(127.148438 0.78125)"/>
      <use xlink:href="#DejaVuSans-30" transform="translate(179.638672 -15.625) scale(0.7)"/>
      <use xlink:href="#DejaVuSans-3d" transform="translate(246.391602 0.78125)"/>
      <use xlink:href="#DejaVuSans-33" transform="translate(349.663086 0.78125)"/>
      <use xlink:href="#DejaVuSans-2e" transform="translate(413.286133 0.78125)"/>
      <use xlink:href="#DejaVuSans-30" transform="translate(445.073242 0.78125)"/>
     </g>
    </g>
    <g id="line2d_31">
     <path d="M 540.8 161.872812 
L 550.8 161.872812 
L 560.8 161.872812 
" style="fill: none; stroke: #ffa500; stroke-width: 1.5; stroke-linecap: square"/>
    </g>
    <g id="text_19">
     <!--     $z_0=4.0$ -->
     <g transform="translate(568.8 165.372812) scale(0.1 -0.1)">
      <use xlink:href="#DejaVuSans-20" transform="translate(0 0.78125)"/>
      <use xlink:href="#DejaVuSans-20" transform="translate(31.787109 0.78125)"/>
      <use xlink:href="#DejaVuSans-20" transform="translate(63.574219 0.78125)"/>
      <use xlink:href="#DejaVuSans-20" transform="translate(95.361328 0.78125)"/>
      <use xlink:href="#DejaVuSans-Oblique-7a" transform="translate(127.148438 0.78125)"/>
      <use xlink:href="#DejaVuSans-30" transform="translate(179.638672 -15.625) scale(0.7)"/>
      <use xlink:href="#DejaVuSans-3d" transform="translate(246.391602 0.78125)"/>
      <use xlink:href="#DejaVuSans-34" transform="translate(349.663086 0.78125)"/>
      <use xlink:href="#DejaVuSans-2e" transform="translate(413.286133 0.78125)"/>
      <use xlink:href="#DejaVuSans-30" transform="translate(445.073242 0.78125)"/>
     </g>
    </g>
   </g>
  </g>
 </g>
 <defs>
  <clipPath id="p433ef96de1">
   <rect x="90" y="51.84" width="558" height="332.64"/>
  </clipPath>
 </defs>
</svg>
